<mxfile host="app.diagrams.net" agent="Mozilla/5.0 (Windows NT 10.0; Win64; x64) AppleWebKit/537.36 (KHTML, like Gecko) Chrome/127.0.0.0 Safari/537.36" version="24.7.7" pages="5">
  <diagram name="MainMap" id="7VftSyIGo6TpSpsLRTtA">
    <mxGraphModel dx="1838" dy="962" grid="1" gridSize="10" guides="1" tooltips="1" connect="1" arrows="1" fold="1" page="1" pageScale="1" pageWidth="1654" pageHeight="1169" background="none" math="0" shadow="0">
      <root>
        <mxCell id="0" />
        <mxCell id="1" parent="0" />
        <UserObject label="WebServer" link="data:page/id,aCcasTxyXglGzUoUQQ_o" id="S-nuVeR0it20LLm0ZQjB-1">
          <mxCell style="fontColor=#0000EE;fontStyle=4;rounded=1;overflow=hidden;spacing=10;fontSize=18;" parent="1" vertex="1">
            <mxGeometry x="90" y="270" width="160" height="80" as="geometry" />
          </mxCell>
        </UserObject>
        <UserObject label="读取配置文件" id="3JOfFTrGMsXYRsM_mcYn-2">
          <mxCell style="fontColor=#0000EE;fontStyle=4;rounded=1;overflow=hidden;spacing=10;fontSize=18;" parent="1" vertex="1">
            <mxGeometry x="330" y="270" width="160" height="80" as="geometry" />
          </mxCell>
        </UserObject>
        <UserObject label="CH 冷站数据处理" id="3JOfFTrGMsXYRsM_mcYn-3">
          <mxCell style="fontColor=#0000EE;fontStyle=0;rounded=1;overflow=hidden;spacing=10;fontSize=18;" parent="1" vertex="1">
            <mxGeometry x="560" y="110" width="190" height="80" as="geometry" />
          </mxCell>
        </UserObject>
        <UserObject label="CL 冷负荷数据处理" id="3JOfFTrGMsXYRsM_mcYn-4">
          <mxCell style="fontColor=#0000EE;fontStyle=0;rounded=1;overflow=hidden;spacing=10;fontSize=18;" parent="1" vertex="1">
            <mxGeometry x="630" y="840" width="190" height="80" as="geometry" />
          </mxCell>
        </UserObject>
        <mxCell id="3JOfFTrGMsXYRsM_mcYn-5" value="&lt;font style=&quot;font-size: 16px;&quot;&gt;数据拉取&lt;/font&gt;" style="rounded=0;whiteSpace=wrap;html=1;strokeColor=default;align=center;verticalAlign=middle;fontFamily=Helvetica;fontSize=12;fontColor=default;fillColor=default;" parent="1" vertex="1">
          <mxGeometry x="850" y="840" width="120" height="60" as="geometry" />
        </mxCell>
        <mxCell id="3JOfFTrGMsXYRsM_mcYn-6" value="&lt;font style=&quot;font-size: 16px;&quot;&gt;数据验证&lt;/font&gt;" style="rounded=0;whiteSpace=wrap;html=1;strokeColor=default;align=center;verticalAlign=middle;fontFamily=Helvetica;fontSize=16;fontColor=default;fillColor=default;" parent="1" vertex="1">
          <mxGeometry x="850" y="910" width="120" height="60" as="geometry" />
        </mxCell>
        <mxCell id="3JOfFTrGMsXYRsM_mcYn-9" value="特征工程" style="rounded=0;whiteSpace=wrap;html=1;strokeColor=default;align=center;verticalAlign=middle;fontFamily=Helvetica;fontSize=16;fontColor=default;fillColor=default;" parent="1" vertex="1">
          <mxGeometry x="850" y="980" width="120" height="60" as="geometry" />
        </mxCell>
        <mxCell id="3JOfFTrGMsXYRsM_mcYn-11" value="处理异常值" style="rounded=0;whiteSpace=wrap;html=1;strokeColor=default;align=center;verticalAlign=middle;fontFamily=Helvetica;fontSize=16;fontColor=default;fillColor=default;" parent="1" vertex="1">
          <mxGeometry x="850" y="1050" width="120" height="60" as="geometry" />
        </mxCell>
        <mxCell id="3JOfFTrGMsXYRsM_mcYn-13" value="输入数据验证" style="rounded=0;whiteSpace=wrap;html=1;strokeColor=default;align=center;verticalAlign=middle;fontFamily=Helvetica;fontSize=16;fontColor=default;fillColor=default;" parent="1" vertex="1">
          <mxGeometry x="850" y="1125" width="120" height="60" as="geometry" />
        </mxCell>
        <mxCell id="3JOfFTrGMsXYRsM_mcYn-14" value="模型训练" style="rounded=0;whiteSpace=wrap;html=1;strokeColor=default;align=center;verticalAlign=middle;fontFamily=Helvetica;fontSize=16;fontColor=default;fillColor=default;" parent="1" vertex="1">
          <mxGeometry x="983" y="840" width="120" height="60" as="geometry" />
        </mxCell>
        <mxCell id="3JOfFTrGMsXYRsM_mcYn-15" value="抛送模型状态" style="rounded=0;whiteSpace=wrap;html=1;strokeColor=default;align=center;verticalAlign=middle;fontFamily=Helvetica;fontSize=16;fontColor=default;fillColor=default;" parent="1" vertex="1">
          <mxGeometry x="983" y="910" width="120" height="60" as="geometry" />
        </mxCell>
        <mxCell id="3JOfFTrGMsXYRsM_mcYn-16" value="保存配置" style="rounded=0;whiteSpace=wrap;html=1;strokeColor=default;align=center;verticalAlign=middle;fontFamily=Helvetica;fontSize=16;fontColor=default;fillColor=default;" parent="1" vertex="1">
          <mxGeometry x="983" y="980" width="120" height="60" as="geometry" />
        </mxCell>
        <mxCell id="3JOfFTrGMsXYRsM_mcYn-17" value="保存模型" style="rounded=0;whiteSpace=wrap;html=1;strokeColor=default;align=center;verticalAlign=middle;fontFamily=Helvetica;fontSize=16;fontColor=default;fillColor=default;" parent="1" vertex="1">
          <mxGeometry x="983" y="1050" width="120" height="60" as="geometry" />
        </mxCell>
        <mxCell id="3JOfFTrGMsXYRsM_mcYn-18" value="更新状态" style="rounded=0;whiteSpace=wrap;html=1;strokeColor=default;align=center;verticalAlign=middle;fontFamily=Helvetica;fontSize=16;fontColor=default;fillColor=default;" parent="1" vertex="1">
          <mxGeometry x="983" y="1125" width="120" height="60" as="geometry" />
        </mxCell>
        <mxCell id="3JOfFTrGMsXYRsM_mcYn-19" value="更新验证信息" style="rounded=0;whiteSpace=wrap;html=1;strokeColor=default;align=center;verticalAlign=middle;fontFamily=Helvetica;fontSize=16;fontColor=default;fillColor=default;" parent="1" vertex="1">
          <mxGeometry x="1113" y="840" width="120" height="60" as="geometry" />
        </mxCell>
        <mxCell id="3JOfFTrGMsXYRsM_mcYn-20" value="&lt;a href=&quot;data:page/id,arc0F6ZHrBInS6Zsz2Wp&quot;&gt;曲线拟合&lt;span style=&quot;color: rgba(0, 0, 0, 0); font-family: monospace; font-size: 0px; text-align: start; text-wrap: nowrap;&quot;&gt;%3CmxGraphModel%3E%3Croot%3E%3CmxCell%20id%3D%220%22%2F%3E%3CmxCell%20id%3D%221%22%20parent%3D%220%22%2F%3E%3CmxCell%20id%3D%222%22%20value%3D%22%E4%BF%9D%E5%AD%98%E6%A8%A1%E5%9E%8B%22%20style%3D%22rounded%3D0%3BwhiteSpace%3Dwrap%3Bhtml%3D1%3BstrokeColor%3Ddefault%3Balign%3Dcenter%3BverticalAlign%3Dmiddle%3BfontFamily%3DHelvetica%3BfontSize%3D16%3BfontColor%3Ddefault%3BfillColor%3Ddefault%3B%22%20vertex%3D%221%22%20parent%3D%221%22%3E%3CmxGeometry%20x%3D%22960%22%20y%3D%22450%22%20width%3D%22120%22%20height%3D%2260%22%20as%3D%22geometry%22%2F%3E%3C%2FmxCell%3E%3C%2Froot%3E%3C%2FmxGraphModel%3E&lt;/span&gt;&lt;/a&gt;" style="rounded=0;whiteSpace=wrap;html=1;strokeColor=default;align=center;verticalAlign=middle;fontFamily=Helvetica;fontSize=16;fontColor=default;fillColor=default;" parent="1" vertex="1">
          <mxGeometry x="827" y="585" width="120" height="60" as="geometry" />
        </mxCell>
        <mxCell id="3JOfFTrGMsXYRsM_mcYn-21" value="数据拉取" style="rounded=0;whiteSpace=wrap;html=1;strokeColor=default;align=center;verticalAlign=middle;fontFamily=Helvetica;fontSize=16;fontColor=default;fillColor=default;" parent="1" vertex="1">
          <mxGeometry x="827" y="255" width="120" height="60" as="geometry" />
        </mxCell>
        <mxCell id="3JOfFTrGMsXYRsM_mcYn-22" value="数据验证" style="rounded=0;whiteSpace=wrap;html=1;strokeColor=default;align=center;verticalAlign=middle;fontFamily=Helvetica;fontSize=16;fontColor=default;fillColor=default;" parent="1" vertex="1">
          <mxGeometry x="827" y="410" width="120" height="60" as="geometry" />
        </mxCell>
        <mxCell id="3JOfFTrGMsXYRsM_mcYn-23" value="输入数据验证" style="rounded=0;whiteSpace=wrap;html=1;strokeColor=default;align=center;verticalAlign=middle;fontFamily=Helvetica;fontSize=16;fontColor=default;fillColor=default;" parent="1" vertex="1">
          <mxGeometry x="1500" y="290" width="120" height="60" as="geometry" />
        </mxCell>
        <mxCell id="3JOfFTrGMsXYRsM_mcYn-24" value="模型测试" style="rounded=0;whiteSpace=wrap;html=1;strokeColor=default;align=center;verticalAlign=middle;fontFamily=Helvetica;fontSize=16;fontColor=default;fillColor=default;" parent="1" vertex="1">
          <mxGeometry x="1370" y="480" width="120" height="60" as="geometry" />
        </mxCell>
        <mxCell id="3JOfFTrGMsXYRsM_mcYn-25" value="模型创建" style="rounded=0;whiteSpace=wrap;html=1;strokeColor=default;align=center;verticalAlign=middle;fontFamily=Helvetica;fontSize=16;fontColor=default;fillColor=default;" parent="1" vertex="1">
          <mxGeometry x="1370" y="410" width="120" height="60" as="geometry" />
        </mxCell>
        <mxCell id="3JOfFTrGMsXYRsM_mcYn-26" value="模型应用" style="rounded=0;whiteSpace=wrap;html=1;strokeColor=default;align=center;verticalAlign=middle;fontFamily=Helvetica;fontSize=16;fontColor=default;fillColor=default;" parent="1" vertex="1">
          <mxGeometry x="1370" y="550" width="120" height="60" as="geometry" />
        </mxCell>
        <mxCell id="3JOfFTrGMsXYRsM_mcYn-27" value="最优化" style="rounded=0;whiteSpace=wrap;html=1;strokeColor=default;align=center;verticalAlign=middle;fontFamily=Helvetica;fontSize=16;fontColor=default;fillColor=default;" parent="1" vertex="1">
          <mxGeometry x="1370" y="620" width="120" height="60" as="geometry" />
        </mxCell>
        <mxCell id="3JOfFTrGMsXYRsM_mcYn-28" value="&amp;nbsp;结果重建" style="rounded=0;whiteSpace=wrap;html=1;strokeColor=default;align=center;verticalAlign=middle;fontFamily=Helvetica;fontSize=16;fontColor=default;fillColor=default;" parent="1" vertex="1">
          <mxGeometry x="1500" y="410" width="120" height="60" as="geometry" />
        </mxCell>
        <mxCell id="3JOfFTrGMsXYRsM_mcYn-29" value="&lt;a href=&quot;data:page/id,SggGDH3xRjy7NUsoMNeI&quot;&gt;保存配置&lt;/a&gt;" style="rounded=0;whiteSpace=wrap;html=1;strokeColor=default;align=center;verticalAlign=middle;fontFamily=Helvetica;fontSize=16;fontColor=default;fillColor=default;" parent="1" vertex="1">
          <mxGeometry x="827" y="110" width="120" height="60" as="geometry" />
        </mxCell>
        <mxCell id="3JOfFTrGMsXYRsM_mcYn-30" value="保存状态" style="rounded=0;whiteSpace=wrap;html=1;strokeColor=default;align=center;verticalAlign=middle;fontFamily=Helvetica;fontSize=16;fontColor=default;fillColor=default;" parent="1" vertex="1">
          <mxGeometry x="1500" y="550" width="120" height="60" as="geometry" />
        </mxCell>
        <mxCell id="3JOfFTrGMsXYRsM_mcYn-32" value="更新状态" style="rounded=0;whiteSpace=wrap;html=1;strokeColor=default;align=center;verticalAlign=middle;fontFamily=Helvetica;fontSize=16;fontColor=default;fillColor=default;" parent="1" vertex="1">
          <mxGeometry x="983" y="110" width="120" height="60" as="geometry" />
        </mxCell>
        <mxCell id="pvUgmMvGtOKYoxtFO1r7-1" value="&lt;div style=&quot;line-height: 19px;&quot;&gt;&lt;font style=&quot;background-color: rgb(255, 255, 255);&quot;&gt;检查数据校验的结果&lt;/font&gt;&lt;br&gt;&lt;/div&gt;" style="rounded=0;whiteSpace=wrap;html=1;strokeColor=default;align=center;verticalAlign=middle;fontFamily=Helvetica;fontSize=16;fontColor=default;fillColor=default;dashed=1;" parent="1" vertex="1">
          <mxGeometry x="983" y="180" width="120" height="60" as="geometry" />
        </mxCell>
        <mxCell id="pvUgmMvGtOKYoxtFO1r7-2" value="更新状态" style="rounded=0;whiteSpace=wrap;html=1;strokeColor=default;align=center;verticalAlign=middle;fontFamily=Helvetica;fontSize=16;fontColor=default;fillColor=default;" parent="1" vertex="1">
          <mxGeometry x="983" y="255" width="120" height="60" as="geometry" />
        </mxCell>
        <mxCell id="pvUgmMvGtOKYoxtFO1r7-3" value="&lt;div style=&quot;line-height: 19px;&quot;&gt;&lt;font style=&quot;background-color: rgb(255, 255, 255);&quot;&gt;检查数据校验的结果&lt;/font&gt;&lt;br&gt;&lt;/div&gt;" style="rounded=0;whiteSpace=wrap;html=1;strokeColor=default;align=center;verticalAlign=middle;fontFamily=Helvetica;fontSize=16;fontColor=default;fillColor=default;dashed=1;" parent="1" vertex="1">
          <mxGeometry x="983" y="325" width="120" height="60" as="geometry" />
        </mxCell>
        <mxCell id="pvUgmMvGtOKYoxtFO1r7-5" value="冷机 训练" style="rounded=0;whiteSpace=wrap;html=1;strokeColor=default;align=center;verticalAlign=middle;fontFamily=Helvetica;fontSize=16;fontColor=default;fillColor=default;" parent="1" vertex="1">
          <mxGeometry x="827" y="20" width="283" height="60" as="geometry" />
        </mxCell>
        <mxCell id="pvUgmMvGtOKYoxtFO1r7-6" value="更新状态" style="rounded=0;whiteSpace=wrap;html=1;strokeColor=default;align=center;verticalAlign=middle;fontFamily=Helvetica;fontSize=16;fontColor=default;fillColor=default;" parent="1" vertex="1">
          <mxGeometry x="983" y="410" width="120" height="60" as="geometry" />
        </mxCell>
        <mxCell id="pvUgmMvGtOKYoxtFO1r7-7" value="&lt;div style=&quot;line-height: 19px;&quot;&gt;&lt;font style=&quot;background-color: rgb(255, 255, 255);&quot;&gt;检查数据校验的结果&lt;/font&gt;&lt;br&gt;&lt;/div&gt;" style="rounded=0;whiteSpace=wrap;html=1;strokeColor=default;align=center;verticalAlign=middle;fontFamily=Helvetica;fontSize=16;fontColor=default;fillColor=default;dashed=1;" parent="1" vertex="1">
          <mxGeometry x="983" y="480" width="120" height="60" as="geometry" />
        </mxCell>
        <mxCell id="pvUgmMvGtOKYoxtFO1r7-8" value="更新状态" style="rounded=0;whiteSpace=wrap;html=1;strokeColor=default;align=center;verticalAlign=middle;fontFamily=Helvetica;fontSize=16;fontColor=default;fillColor=default;" parent="1" vertex="1">
          <mxGeometry x="993" y="585" width="120" height="60" as="geometry" />
        </mxCell>
        <mxCell id="pvUgmMvGtOKYoxtFO1r7-9" value="&lt;div style=&quot;line-height: 19px;&quot;&gt;&lt;font style=&quot;background-color: rgb(255, 255, 255);&quot;&gt;检查数据校验的结果&lt;/font&gt;&lt;br&gt;&lt;/div&gt;" style="rounded=0;whiteSpace=wrap;html=1;strokeColor=default;align=center;verticalAlign=middle;fontFamily=Helvetica;fontSize=16;fontColor=default;fillColor=default;dashed=1;" parent="1" vertex="1">
          <mxGeometry x="993" y="655" width="120" height="60" as="geometry" />
        </mxCell>
        <mxCell id="TRmiVR3FprZt9IKqpVz8-1" value="需要验证拉取的数据是否和DB的数据完全一致" style="rounded=0;whiteSpace=wrap;html=1;strokeColor=#b85450;align=center;verticalAlign=middle;fontFamily=Helvetica;fontSize=12;fillColor=#f8cecc;" parent="1" vertex="1">
          <mxGeometry x="1130" y="255" width="120" height="60" as="geometry" />
        </mxCell>
      </root>
    </mxGraphModel>
  </diagram>
  <diagram id="aCcasTxyXglGzUoUQQ_o" name="WebSever">
    <mxGraphModel dx="1050" dy="626" grid="1" gridSize="10" guides="1" tooltips="1" connect="1" arrows="1" fold="1" page="1" pageScale="1" pageWidth="1654" pageHeight="1169" math="0" shadow="0">
      <root>
        <mxCell id="0" />
        <mxCell id="1" parent="0" />
        <mxCell id="75KrjhZqi5JHaW2zp71U-2" value="&lt;h1 style=&quot;margin-top: 0px;&quot;&gt;API功能&lt;/h1&gt;&lt;p&gt;处理前端HTTP请求&lt;/p&gt;&lt;p&gt;通过多线程处理后台任务&lt;/p&gt;&lt;p&gt;生成API文档&lt;/p&gt;" style="text;html=1;whiteSpace=wrap;overflow=hidden;rounded=0;" vertex="1" parent="1">
          <mxGeometry x="110" y="280" width="180" height="120" as="geometry" />
        </mxCell>
        <mxCell id="75KrjhZqi5JHaW2zp71U-9" value="" style="edgeStyle=orthogonalEdgeStyle;rounded=0;orthogonalLoop=1;jettySize=auto;html=1;fontFamily=Helvetica;fontSize=12;fontColor=default;" edge="1" parent="1" source="75KrjhZqi5JHaW2zp71U-3" target="75KrjhZqi5JHaW2zp71U-6">
          <mxGeometry relative="1" as="geometry" />
        </mxCell>
        <mxCell id="75KrjhZqi5JHaW2zp71U-3" value="&lt;font style=&quot;font-size: 16px;&quot;&gt;Flask&lt;/font&gt;" style="rounded=0;whiteSpace=wrap;html=1;" vertex="1" parent="1">
          <mxGeometry x="340" y="220" width="120" height="60" as="geometry" />
        </mxCell>
        <mxCell id="75KrjhZqi5JHaW2zp71U-4" value="&lt;font style=&quot;font-size: 16px;&quot;&gt;Flasgger&lt;/font&gt;" style="rounded=0;whiteSpace=wrap;html=1;" vertex="1" parent="1">
          <mxGeometry x="340" y="310" width="120" height="60" as="geometry" />
        </mxCell>
        <mxCell id="75KrjhZqi5JHaW2zp71U-5" value="&lt;font style=&quot;font-size: 16px;&quot;&gt;Flasgger&lt;/font&gt;" style="rounded=0;whiteSpace=wrap;html=1;" vertex="1" parent="1">
          <mxGeometry x="470" y="310" width="120" height="60" as="geometry" />
        </mxCell>
        <mxCell id="75KrjhZqi5JHaW2zp71U-6" value="&lt;font style=&quot;font-size: 16px;&quot;&gt;实例 app&lt;/font&gt;" style="rounded=0;whiteSpace=wrap;html=1;" vertex="1" parent="1">
          <mxGeometry x="590" y="220" width="120" height="60" as="geometry" />
        </mxCell>
      </root>
    </mxGraphModel>
  </diagram>
  <diagram id="SggGDH3xRjy7NUsoMNeI" name="save_config">
    <mxGraphModel dx="1050" dy="626" grid="1" gridSize="10" guides="1" tooltips="1" connect="1" arrows="1" fold="1" page="1" pageScale="1" pageWidth="1654" pageHeight="1169" math="0" shadow="0">
      <root>
        <mxCell id="0" />
        <mxCell id="1" parent="0" />
        <mxCell id="4qPGKMzXGfzYm2e0nELk-1" value="Save_config.py" style="rounded=0;whiteSpace=wrap;html=1;strokeColor=default;align=center;verticalAlign=middle;fontFamily=Helvetica;fontSize=16;fontColor=default;fillColor=default;" vertex="1" parent="1">
          <mxGeometry x="10" y="50" width="120" height="60" as="geometry" />
        </mxCell>
        <mxCell id="4qPGKMzXGfzYm2e0nELk-2" value="save_configs()" style="rounded=0;whiteSpace=wrap;html=1;strokeColor=default;align=center;verticalAlign=middle;fontFamily=Helvetica;fontSize=16;fontColor=default;fillColor=default;" vertex="1" parent="1">
          <mxGeometry x="420" y="210" width="120" height="60" as="geometry" />
        </mxCell>
        <mxCell id="4qPGKMzXGfzYm2e0nELk-12" style="edgeStyle=orthogonalEdgeStyle;rounded=0;orthogonalLoop=1;jettySize=auto;html=1;entryX=0.5;entryY=0;entryDx=0;entryDy=0;fontFamily=Helvetica;fontSize=16;fontColor=default;" edge="1" parent="1" source="4qPGKMzXGfzYm2e0nELk-3" target="4qPGKMzXGfzYm2e0nELk-2">
          <mxGeometry relative="1" as="geometry">
            <Array as="points">
              <mxPoint x="340" y="170" />
              <mxPoint x="480" y="170" />
            </Array>
          </mxGeometry>
        </mxCell>
        <mxCell id="4qPGKMzXGfzYm2e0nELk-3" value="hierarchy id" style="rounded=0;whiteSpace=wrap;html=1;strokeColor=default;align=center;verticalAlign=middle;fontFamily=Helvetica;fontSize=16;fontColor=default;fillColor=default;" vertex="1" parent="1">
          <mxGeometry x="280" y="80" width="120" height="60" as="geometry" />
        </mxCell>
        <mxCell id="4qPGKMzXGfzYm2e0nELk-13" value="" style="edgeStyle=orthogonalEdgeStyle;rounded=0;orthogonalLoop=1;jettySize=auto;html=1;fontFamily=Helvetica;fontSize=16;fontColor=default;" edge="1" parent="1" source="4qPGKMzXGfzYm2e0nELk-4" target="4qPGKMzXGfzYm2e0nELk-2">
          <mxGeometry relative="1" as="geometry" />
        </mxCell>
        <mxCell id="4qPGKMzXGfzYm2e0nELk-4" value="config id" style="rounded=0;whiteSpace=wrap;html=1;strokeColor=default;align=center;verticalAlign=middle;fontFamily=Helvetica;fontSize=16;fontColor=default;fillColor=default;" vertex="1" parent="1">
          <mxGeometry x="420" y="80" width="120" height="60" as="geometry" />
        </mxCell>
        <mxCell id="4qPGKMzXGfzYm2e0nELk-14" style="edgeStyle=orthogonalEdgeStyle;rounded=0;orthogonalLoop=1;jettySize=auto;html=1;entryX=0.5;entryY=0;entryDx=0;entryDy=0;fontFamily=Helvetica;fontSize=16;fontColor=default;" edge="1" parent="1" source="4qPGKMzXGfzYm2e0nELk-5" target="4qPGKMzXGfzYm2e0nELk-2">
          <mxGeometry relative="1" as="geometry">
            <Array as="points">
              <mxPoint x="620" y="170" />
              <mxPoint x="480" y="170" />
            </Array>
          </mxGeometry>
        </mxCell>
        <mxCell id="4qPGKMzXGfzYm2e0nELk-5" value="config" style="rounded=0;whiteSpace=wrap;html=1;strokeColor=default;align=center;verticalAlign=middle;fontFamily=Helvetica;fontSize=16;fontColor=default;fillColor=default;" vertex="1" parent="1">
          <mxGeometry x="560" y="80" width="120" height="60" as="geometry" />
        </mxCell>
        <mxCell id="4qPGKMzXGfzYm2e0nELk-7" value="模型所服务的预测目标所属层级" style="text;whiteSpace=wrap;fontFamily=Helvetica;fontSize=16;fontColor=default;" vertex="1" parent="1">
          <mxGeometry x="150" y="50" width="260" height="40" as="geometry" />
        </mxCell>
        <mxCell id="4qPGKMzXGfzYm2e0nELk-9" value="模型配置表id" style="text;whiteSpace=wrap;fontFamily=Helvetica;fontSize=16;fontColor=default;" vertex="1" parent="1">
          <mxGeometry x="420" y="50" width="130" height="40" as="geometry" />
        </mxCell>
        <mxCell id="4qPGKMzXGfzYm2e0nELk-11" value="BA侧传来的全量参数信息" style="text;whiteSpace=wrap;fontFamily=Helvetica;fontSize=16;fontColor=default;" vertex="1" parent="1">
          <mxGeometry x="560" y="50" width="210" height="40" as="geometry" />
        </mxCell>
        <mxCell id="4qPGKMzXGfzYm2e0nELk-15" value="传入config参数&lt;br&gt;解析为Python字典" style="text;html=1;align=center;verticalAlign=middle;whiteSpace=wrap;rounded=0;fontFamily=Helvetica;fontSize=16;fontColor=default;" vertex="1" parent="1">
          <mxGeometry x="630" y="160" width="180" height="30" as="geometry" />
        </mxCell>
        <mxCell id="4qPGKMzXGfzYm2e0nELk-16" value="提取各类配置参数：&lt;div&gt;1. basic configs&lt;/div&gt;&lt;div&gt;2. chiller plant configs 冷站总体参数&lt;/div&gt;&lt;div style=&quot;&quot;&gt;3. device configs 设备参数&lt;/div&gt;&lt;div style=&quot;&quot;&gt;4. weather configs 天气参数&lt;/div&gt;" style="text;html=1;align=left;verticalAlign=middle;whiteSpace=wrap;rounded=0;fontFamily=Helvetica;fontSize=16;fontColor=default;" vertex="1" parent="1">
          <mxGeometry x="660" y="190" width="260" height="155" as="geometry" />
        </mxCell>
        <mxCell id="4qPGKMzXGfzYm2e0nELk-17" value="granularity&lt;div&gt;颗粒度调为15min&lt;/div&gt;" style="rounded=0;whiteSpace=wrap;html=1;strokeColor=default;align=center;verticalAlign=middle;fontFamily=Helvetica;fontSize=16;fontColor=default;fillColor=default;" vertex="1" parent="1">
          <mxGeometry x="310" y="360" width="120" height="80" as="geometry" />
        </mxCell>
        <mxCell id="4qPGKMzXGfzYm2e0nELk-18" value="提取&lt;div&gt;basic configs&lt;/div&gt;&lt;div&gt;中的冷暖季ID和URL&lt;/div&gt;" style="rounded=0;whiteSpace=wrap;html=1;strokeColor=default;align=center;verticalAlign=middle;fontFamily=Helvetica;fontSize=16;fontColor=default;fillColor=default;" vertex="1" parent="1">
          <mxGeometry x="435" y="360" width="125" height="80" as="geometry" />
        </mxCell>
        <mxCell id="4qPGKMzXGfzYm2e0nELk-19" value="提取历史数据的开始时间和结束时间" style="rounded=0;whiteSpace=wrap;html=1;strokeColor=default;align=center;verticalAlign=middle;fontFamily=Helvetica;fontSize=16;fontColor=default;fillColor=default;" vertex="1" parent="1">
          <mxGeometry x="570" y="360" width="125" height="80" as="geometry" />
        </mxCell>
        <mxCell id="4qPGKMzXGfzYm2e0nELk-20" value="给模型起名字&lt;br&gt;BA_chiller_plant+ID" style="rounded=0;whiteSpace=wrap;html=1;strokeColor=default;align=center;verticalAlign=middle;fontFamily=Helvetica;fontSize=16;fontColor=default;fillColor=default;" vertex="1" parent="1">
          <mxGeometry x="340" y="520" width="160" height="90" as="geometry" />
        </mxCell>
        <mxCell id="4qPGKMzXGfzYm2e0nELk-21" value="生成model config存入SQL" style="rounded=0;whiteSpace=wrap;html=1;strokeColor=default;align=center;verticalAlign=middle;fontFamily=Helvetica;fontSize=16;fontColor=default;fillColor=default;" vertex="1" parent="1">
          <mxGeometry x="510" y="520" width="160" height="90" as="geometry" />
        </mxCell>
      </root>
    </mxGraphModel>
  </diagram>
  <diagram id="arc0F6ZHrBInS6Zsz2Wp" name="curves_fit">
    <mxGraphModel dx="913" dy="544" grid="1" gridSize="10" guides="1" tooltips="1" connect="1" arrows="1" fold="1" page="1" pageScale="1" pageWidth="1654" pageHeight="1169" math="0" shadow="0">
      <root>
        <mxCell id="0" />
        <mxCell id="1" parent="0" />
        <mxCell id="THqZlHEJvbjBZn6IOVUx-2" value="&lt;font style=&quot;font-size: 16px;&quot;&gt;Curve_fit.py&lt;/font&gt;" style="rounded=0;whiteSpace=wrap;html=1;" vertex="1" parent="1">
          <mxGeometry x="40" y="60" width="140" height="80" as="geometry" />
        </mxCell>
        <mxCell id="THqZlHEJvbjBZn6IOVUx-4" value="&lt;font style=&quot;font-size: 16px;&quot;&gt;&lt;b&gt;curve_fit()&lt;/b&gt;&lt;/font&gt;" style="rounded=0;whiteSpace=wrap;html=1;" vertex="1" parent="1">
          <mxGeometry x="810" y="320" width="140" height="80" as="geometry" />
        </mxCell>
        <mxCell id="THqZlHEJvbjBZn6IOVUx-5" value="&lt;font style=&quot;font-size: 16px;&quot;&gt;granularity&lt;/font&gt;" style="rounded=0;whiteSpace=wrap;html=1;" vertex="1" parent="1">
          <mxGeometry x="490" y="150" width="140" height="80" as="geometry" />
        </mxCell>
        <mxCell id="THqZlHEJvbjBZn6IOVUx-6" value="&lt;font style=&quot;font-size: 16px;&quot;&gt;device_data&lt;/font&gt;" style="rounded=0;whiteSpace=wrap;html=1;" vertex="1" parent="1">
          <mxGeometry x="650" y="150" width="140" height="80" as="geometry" />
        </mxCell>
        <mxCell id="THqZlHEJvbjBZn6IOVUx-7" value="&lt;font style=&quot;font-size: 16px;&quot;&gt;warm cold season&lt;/font&gt;" style="rounded=0;whiteSpace=wrap;html=1;" vertex="1" parent="1">
          <mxGeometry x="810" y="150" width="140" height="80" as="geometry" />
        </mxCell>
        <mxCell id="THqZlHEJvbjBZn6IOVUx-8" value="&lt;font style=&quot;font-size: 16px;&quot;&gt;build status&lt;/font&gt;" style="rounded=0;whiteSpace=wrap;html=1;" vertex="1" parent="1">
          <mxGeometry x="970" y="150" width="140" height="80" as="geometry" />
        </mxCell>
        <mxCell id="THqZlHEJvbjBZn6IOVUx-9" value="&lt;font style=&quot;font-size: 16px;&quot;&gt;dynamic config map&lt;/font&gt;" style="rounded=0;whiteSpace=wrap;html=1;" vertex="1" parent="1">
          <mxGeometry x="1130" y="150" width="140" height="80" as="geometry" />
        </mxCell>
        <mxCell id="THqZlHEJvbjBZn6IOVUx-10" value="&lt;font style=&quot;font-size: 16px;&quot;&gt;process&amp;nbsp; result&lt;/font&gt;" style="rounded=0;whiteSpace=wrap;html=1;" vertex="1" parent="1">
          <mxGeometry x="650" y="505" width="140" height="80" as="geometry" />
        </mxCell>
        <mxCell id="THqZlHEJvbjBZn6IOVUx-11" value="&lt;font style=&quot;font-size: 16px;&quot;&gt;curves&lt;/font&gt;" style="rounded=0;whiteSpace=wrap;html=1;" vertex="1" parent="1">
          <mxGeometry x="950" y="505" width="140" height="80" as="geometry" />
        </mxCell>
        <mxCell id="THqZlHEJvbjBZn6IOVUx-12" value="&lt;b&gt;针对&lt;/b&gt;&lt;div&gt;&lt;ol&gt;&lt;li&gt;&lt;b&gt;冷机&lt;/b&gt;&lt;/li&gt;&lt;li&gt;&lt;b&gt;冷冻泵&lt;/b&gt;&lt;/li&gt;&lt;li&gt;&lt;b&gt;冷却泵&lt;/b&gt;&lt;/li&gt;&lt;li&gt;&lt;b&gt;冷却塔&lt;/b&gt;&lt;/li&gt;&lt;/ol&gt;&lt;b&gt;四种不同设备的曲线拟合&lt;/b&gt;&lt;/div&gt;" style="text;html=1;align=left;verticalAlign=middle;whiteSpace=wrap;rounded=0;fontFamily=Helvetica;fontSize=12;fontColor=default;" vertex="1" parent="1">
          <mxGeometry x="1000" y="310" width="150" height="80" as="geometry" />
        </mxCell>
        <mxCell id="THqZlHEJvbjBZn6IOVUx-13" value="&lt;h1 style=&quot;margin-top: 0px;&quot;&gt;逻辑&lt;/h1&gt;&lt;p&gt;1. &lt;b&gt;数据清洗&lt;/b&gt;&lt;/p&gt;&lt;p&gt;&lt;span style=&quot;white-space: pre;&quot;&gt;&#x9;&lt;/span&gt;删除开机后和关机前的两个时刻的数据&lt;br&gt;&lt;/p&gt;&lt;p&gt;&lt;span style=&quot;white-space: pre;&quot;&gt;&#x9;&lt;/span&gt;删除负载比，COP，温度等参数不合理范围的数据点&lt;br&gt;&lt;/p&gt;&lt;p&gt;2. &lt;b&gt;数值处理&lt;/b&gt;&lt;/p&gt;&lt;p&gt;&lt;span style=&quot;white-space: pre;&quot;&gt;&#x9;&lt;/span&gt;把0-0.25的值当做0看待&lt;/p&gt;&lt;p&gt;&lt;span style=&quot;white-space: pre;&quot;&gt;&#x9;&lt;/span&gt;把0.25-0.75的数据作为0.5&lt;br&gt;&lt;/p&gt;&lt;p&gt;&lt;span style=&quot;white-space: pre;&quot;&gt;&#x9;&lt;/span&gt;把0.75-1的数据作为1看待&lt;br&gt;&lt;/p&gt;&lt;p&gt;&lt;br&gt;&lt;/p&gt;" style="text;html=1;whiteSpace=wrap;overflow=hidden;rounded=0;fontFamily=Helvetica;fontSize=12;fontColor=default;" vertex="1" parent="1">
          <mxGeometry x="1160" y="270" width="280" height="330" as="geometry" />
        </mxCell>
      </root>
    </mxGraphModel>
  </diagram>
  <diagram id="vum5HO5R7B470zEkELSg" name="各部分约束关系">
    <mxGraphModel dx="1302" dy="682" grid="1" gridSize="10" guides="1" tooltips="1" connect="1" arrows="1" fold="1" page="1" pageScale="1" pageWidth="1654" pageHeight="1169" math="0" shadow="0">
      <root>
        <mxCell id="0" />
        <mxCell id="1" parent="0" />
        <mxCell id="5i3igZ81G9UJhbHZShYA-2" value="冷却塔" style="swimlane;childLayout=stackLayout;resizeParent=1;resizeParentMax=0;startSize=20;horizontal=0;horizontalStack=1;" vertex="1" parent="1">
          <mxGeometry x="990" y="250" width="380" height="480" as="geometry" />
        </mxCell>
        <mxCell id="5i3igZ81G9UJhbHZShYA-3" value="正" style="swimlane;startSize=20;" vertex="1" parent="5i3igZ81G9UJhbHZShYA-2">
          <mxGeometry x="20" width="180" height="480" as="geometry" />
        </mxCell>
        <mxCell id="5i3igZ81G9UJhbHZShYA-7" value="服务制冷机达到&lt;br&gt;更低的冷却水温度" style="text;html=1;align=center;verticalAlign=middle;resizable=0;points=[];autosize=1;strokeColor=#82b366;fillColor=#d5e8d4;" vertex="1" parent="5i3igZ81G9UJhbHZShYA-3">
          <mxGeometry x="10" y="43" width="120" height="40" as="geometry" />
        </mxCell>
        <mxCell id="5i3igZ81G9UJhbHZShYA-4" value="负" style="swimlane;startSize=20;" vertex="1" parent="5i3igZ81G9UJhbHZShYA-2">
          <mxGeometry x="200" width="180" height="480" as="geometry" />
        </mxCell>
        <mxCell id="5i3igZ81G9UJhbHZShYA-8" value="本身消耗电能" style="text;html=1;align=center;verticalAlign=middle;resizable=0;points=[];autosize=1;strokeColor=#b85450;fillColor=#f8cecc;" vertex="1" parent="5i3igZ81G9UJhbHZShYA-4">
          <mxGeometry x="10" y="43" width="100" height="30" as="geometry" />
        </mxCell>
        <mxCell id="5i3igZ81G9UJhbHZShYA-10" value="启停策略限制" style="text;html=1;align=center;verticalAlign=middle;resizable=0;points=[];autosize=1;strokeColor=#b85450;fillColor=#f8cecc;" vertex="1" parent="5i3igZ81G9UJhbHZShYA-4">
          <mxGeometry x="10" y="90" width="100" height="30" as="geometry" />
        </mxCell>
        <mxCell id="5i3igZ81G9UJhbHZShYA-11" value="开关机/增加风机&lt;br&gt;为了极致降低冷却水温度&lt;div&gt;是否消耗了更多的能量&lt;/div&gt;" style="text;html=1;align=center;verticalAlign=middle;resizable=0;points=[];autosize=1;strokeColor=#b85450;fillColor=#f8cecc;" vertex="1" parent="5i3igZ81G9UJhbHZShYA-4">
          <mxGeometry x="10" y="140" width="160" height="60" as="geometry" />
        </mxCell>
        <mxCell id="5i3igZ81G9UJhbHZShYA-12" value="受湿球温度影响" style="text;html=1;align=center;verticalAlign=middle;resizable=0;points=[];autosize=1;strokeColor=#b85450;fillColor=#f8cecc;" vertex="1" parent="5i3igZ81G9UJhbHZShYA-4">
          <mxGeometry x="10" y="220" width="110" height="30" as="geometry" />
        </mxCell>
        <mxCell id="5i3igZ81G9UJhbHZShYA-14" value="制冷机" style="swimlane;childLayout=stackLayout;resizeParent=1;resizeParentMax=0;startSize=20;horizontal=0;horizontalStack=1;" vertex="1" parent="1">
          <mxGeometry x="300" y="250" width="380" height="480" as="geometry" />
        </mxCell>
        <mxCell id="5i3igZ81G9UJhbHZShYA-15" value="正" style="swimlane;startSize=20;" vertex="1" parent="5i3igZ81G9UJhbHZShYA-14">
          <mxGeometry x="20" width="180" height="480" as="geometry" />
        </mxCell>
        <mxCell id="5i3igZ81G9UJhbHZShYA-16" value="直接为用户提供冷源" style="text;html=1;align=center;verticalAlign=middle;resizable=0;points=[];autosize=1;strokeColor=#82b366;fillColor=#d5e8d4;" vertex="1" parent="5i3igZ81G9UJhbHZShYA-15">
          <mxGeometry x="10" y="43" width="130" height="30" as="geometry" />
        </mxCell>
        <mxCell id="5i3igZ81G9UJhbHZShYA-17" value="负" style="swimlane;startSize=20;" vertex="1" parent="5i3igZ81G9UJhbHZShYA-14">
          <mxGeometry x="200" width="180" height="480" as="geometry" />
        </mxCell>
        <mxCell id="5i3igZ81G9UJhbHZShYA-18" value="本身消耗电能" style="text;html=1;align=center;verticalAlign=middle;resizable=0;points=[];autosize=1;strokeColor=#b85450;fillColor=#f8cecc;" vertex="1" parent="5i3igZ81G9UJhbHZShYA-17">
          <mxGeometry x="10" y="43" width="100" height="30" as="geometry" />
        </mxCell>
        <mxCell id="5i3igZ81G9UJhbHZShYA-19" value="启停策略限制" style="text;html=1;align=center;verticalAlign=middle;resizable=0;points=[];autosize=1;strokeColor=#b85450;fillColor=#f8cecc;" vertex="1" parent="5i3igZ81G9UJhbHZShYA-17">
          <mxGeometry x="10" y="90" width="100" height="30" as="geometry" />
        </mxCell>
        <mxCell id="5i3igZ81G9UJhbHZShYA-20" value="受水的流量影响" style="text;html=1;align=center;verticalAlign=middle;resizable=0;points=[];autosize=1;strokeColor=#b85450;fillColor=#f8cecc;" vertex="1" parent="5i3igZ81G9UJhbHZShYA-17">
          <mxGeometry x="10" y="140" width="110" height="30" as="geometry" />
        </mxCell>
        <mxCell id="5i3igZ81G9UJhbHZShYA-21" value="受冷却水温度的影响" style="text;html=1;align=center;verticalAlign=middle;resizable=0;points=[];autosize=1;strokeColor=#b85450;fillColor=#f8cecc;" vertex="1" parent="5i3igZ81G9UJhbHZShYA-17">
          <mxGeometry x="10" y="190" width="130" height="30" as="geometry" />
        </mxCell>
        <mxCell id="5i3igZ81G9UJhbHZShYA-23" value="自身冷机数量和体积" style="text;html=1;align=center;verticalAlign=middle;resizable=0;points=[];autosize=1;strokeColor=#b85450;fillColor=#f8cecc;" vertex="1" parent="5i3igZ81G9UJhbHZShYA-17">
          <mxGeometry x="10" y="240" width="130" height="30" as="geometry" />
        </mxCell>
      </root>
    </mxGraphModel>
  </diagram>
</mxfile>
